<svg width="695" height="624" viewBox="0 0 695 624" fill="none" xmlns="http://www.w3.org/2000/svg">
<circle opacity="0.6" cx="206.689" cy="416.527" r="206.689" fill="#62A5CC"/>
<circle opacity="0.3" cx="487.635" cy="246.257" r="206.689" fill="#62A5CC"/>
<circle cx="372.5" cy="333.5" r="278.5" fill="url(#paint0_linear_1_260)"/>
<g opacity="0.2" filter="url(#filter0_f_1_260)">
<path fill-rule="evenodd" clip-rule="evenodd" d="M260.922 447.342H480.662V530.006H260.922V447.342Z" fill="#5F5C6B"/>
</g>
<g filter="url(#filter1_d_1_260)">
<path fill-rule="evenodd" clip-rule="evenodd" d="M250.458 43C250.458 25.3269 264.785 11 282.458 11H459.126C476.799 11 491.126 25.3269 491.126 43V126.557H491.889C492.624 126.557 493.219 127.152 493.219 127.886V180.917C493.219 181.651 492.624 182.246 491.889 182.246H491.126V476.032C491.126 493.705 476.799 508.032 459.126 508.032H282.458C264.784 508.032 250.458 493.705 250.458 476.032V198.782H249.695C248.96 198.782 248.365 198.187 248.365 197.453V162.415C248.365 161.681 248.96 161.085 249.695 161.085H250.458V152.708H249.695C248.96 152.708 248.365 152.113 248.365 151.379V116.341C248.365 115.607 248.96 115.011 249.695 115.011H250.458V96.163H249.695C248.96 96.163 248.365 95.5678 248.365 94.8335V75.5028C248.365 74.7685 248.96 74.1732 249.695 74.1732H250.458V43Z" fill="#E1E0E7"/>
</g>
<path fill-rule="evenodd" clip-rule="evenodd" d="M261.968 45.5579C261.968 33.4076 271.818 23.5579 283.968 23.5579H305.281C307.484 23.5579 309.303 25.356 309.801 27.5017C310.993 32.6278 314.852 40.9315 327.355 40.9315C337.094 40.9315 403.872 40.9315 413.611 40.9315C426.114 40.9315 429.973 32.6278 431.165 27.5017C431.663 25.356 433.482 23.5579 435.685 23.5579H456.998C469.148 23.5579 478.998 33.4076 478.998 45.5579V474.863C478.998 487.013 469.148 496.863 456.998 496.863H283.968C271.818 496.863 261.968 487.013 261.968 474.863V45.5579Z" fill="white"/>
<g filter="url(#filter2_d_1_260)">
<rect x="195" y="222.37" width="106.731" height="106.731" rx="6" fill="white"/>
</g>
<g filter="url(#filter3_d_1_260)">
<rect x="408.462" y="357.353" width="129.752" height="85.8035" rx="6" fill="white"/>
</g>
<rect opacity="0.85" x="431.483" y="384.559" width="86.5011" height="9.71044" rx="4.85522" fill="url(#paint1_linear_1_260)"/>
<rect opacity="0.85" x="431.482" y="405.194" width="68.3876" height="9.71044" rx="4.85522" fill="url(#paint2_linear_1_260)"/>
<circle cx="247.842" cy="275.212" r="24.7756" stroke="#F1F0F5" stroke-width="8"/>
<path d="M234.862 296.315C237.955 298.217 241.428 299.417 245.036 299.828C248.644 300.239 252.298 299.853 255.739 298.695C259.181 297.538 262.326 295.638 264.952 293.131C267.578 290.623 269.621 287.569 270.936 284.185C272.251 280.8 272.806 277.168 272.562 273.545C272.318 269.922 271.28 266.398 269.523 263.22C267.765 260.043 265.331 257.291 262.392 255.158C259.453 253.026 256.081 251.566 252.515 250.881" stroke="url(#paint3_linear_1_260)" stroke-width="8" stroke-linecap="round" stroke-linejoin="round"/>
<defs>
<filter id="filter0_f_1_260" x="210.922" y="397.342" width="319.74" height="182.664" filterUnits="userSpaceOnUse" color-interpolation-filters="sRGB">
<feFlood flood-opacity="0" result="BackgroundImageFix"/>
<feBlend mode="normal" in="SourceGraphic" in2="BackgroundImageFix" result="shape"/>
<feGaussianBlur stdDeviation="25" result="effect1_foregroundBlur_1_260"/>
</filter>
<filter id="filter1_d_1_260" x="217.365" y="0" width="306.854" height="559.032" filterUnits="userSpaceOnUse" color-interpolation-filters="sRGB">
<feFlood flood-opacity="0" result="BackgroundImageFix"/>
<feColorMatrix in="SourceAlpha" type="matrix" values="0 0 0 0 0 0 0 0 0 0 0 0 0 0 0 0 0 0 127 0" result="hardAlpha"/>
<feOffset dy="20"/>
<feGaussianBlur stdDeviation="15.5"/>
<feColorMatrix type="matrix" values="0 0 0 0 0 0 0 0 0 0 0 0 0 0 0 0 0 0 0.03 0"/>
<feBlend mode="normal" in2="BackgroundImageFix" result="effect1_dropShadow_1_260"/>
<feBlend mode="normal" in="SourceGraphic" in2="effect1_dropShadow_1_260" result="shape"/>
</filter>
<filter id="filter2_d_1_260" x="175" y="212.37" width="146.731" height="146.731" filterUnits="userSpaceOnUse" color-interpolation-filters="sRGB">
<feFlood flood-opacity="0" result="BackgroundImageFix"/>
<feColorMatrix in="SourceAlpha" type="matrix" values="0 0 0 0 0 0 0 0 0 0 0 0 0 0 0 0 0 0 127 0" result="hardAlpha"/>
<feOffset dy="10"/>
<feGaussianBlur stdDeviation="10"/>
<feColorMatrix type="matrix" values="0 0 0 0 0.4795 0 0 0 0 0.468125 0 0 0 0 0.525 0 0 0 0.1 0"/>
<feBlend mode="normal" in2="BackgroundImageFix" result="effect1_dropShadow_1_260"/>
<feBlend mode="normal" in="SourceGraphic" in2="effect1_dropShadow_1_260" result="shape"/>
</filter>
<filter id="filter3_d_1_260" x="388.462" y="347.353" width="169.751" height="125.803" filterUnits="userSpaceOnUse" color-interpolation-filters="sRGB">
<feFlood flood-opacity="0" result="BackgroundImageFix"/>
<feColorMatrix in="SourceAlpha" type="matrix" values="0 0 0 0 0 0 0 0 0 0 0 0 0 0 0 0 0 0 127 0" result="hardAlpha"/>
<feOffset dy="10"/>
<feGaussianBlur stdDeviation="10"/>
<feColorMatrix type="matrix" values="0 0 0 0 0.4795 0 0 0 0 0.468125 0 0 0 0 0.525 0 0 0 0.1 0"/>
<feBlend mode="normal" in2="BackgroundImageFix" result="effect1_dropShadow_1_260"/>
<feBlend mode="normal" in="SourceGraphic" in2="effect1_dropShadow_1_260" result="shape"/>
</filter>
<linearGradient id="paint0_linear_1_260" x1="691.196" y1="142.241" x2="-55.743" y2="213.824" gradientUnits="userSpaceOnUse">
<stop stop-color="#62A5CC"/>
<stop offset="1" stop-color="#1970A5"/>
</linearGradient>
<linearGradient id="paint1_linear_1_260" x1="524.226" y1="386.08" x2="456.513" y2="443.887" gradientUnits="userSpaceOnUse">
<stop stop-color="#62A5CC"/>
<stop offset="1" stop-color="#1970A5"/>
</linearGradient>
<linearGradient id="paint2_linear_1_260" x1="504.805" y1="406.715" x2="441.22" y2="449.63" gradientUnits="userSpaceOnUse">
<stop stop-color="#62A5CC"/>
<stop offset="1" stop-color="#1970A5"/>
</linearGradient>
<linearGradient id="paint3_linear_1_260" x1="209.505" y1="277.452" x2="277.419" y2="240.056" gradientUnits="userSpaceOnUse">
<stop stop-color="#62A5CC"/>
<stop offset="1" stop-color="#003E62"/>
</linearGradient>
</defs>
</svg>
